<svg width="137" height="30" viewBox="0 0 137 30" fill="none" xmlns="http://www.w3.org/2000/svg">
<g clip-path="url(#clip0_402_31133)">
<path fill-rule="evenodd" clip-rule="evenodd" d="M43.3159 1.99666C43.3159 0.980028 44.149 0.155884 45.1768 0.155884H48.4187C49.1502 0.155884 49.8591 0.406639 50.4248 0.865465L51.411 1.66543L51.4356 1.68768C51.4584 1.68008 51.4811 1.67266 51.504 1.66543C53.2832 1.10173 55.4419 0.994524 57.6451 0.994524C59.8483 0.994524 62.007 1.10173 63.7862 1.66543C63.8091 1.67266 63.8318 1.68008 63.8546 1.68768L63.8792 1.66543L64.8654 0.865465C65.431 0.406639 66.14 0.155884 66.8715 0.155884H70.1134C71.1412 0.155884 71.9743 0.980028 71.9743 1.99666V3.13459C71.9743 4.01502 71.5994 4.85472 70.9415 5.44769L70.1459 6.16476C69.7575 6.51482 69.2913 6.76959 68.785 6.90848L68.5968 6.96011C69.334 8.70006 69.7412 10.5599 69.7412 12.0645C69.7412 18.1167 65.9555 20.7306 62.6198 23.0337C59.9929 24.8475 57.6451 26.4684 57.6451 29.4242C57.6451 26.4684 55.2973 24.8475 52.6704 23.0337C49.3347 20.7306 45.549 18.1167 45.549 12.0645C45.549 10.5599 45.9562 8.70006 46.6934 6.96011L46.5052 6.90848C45.9989 6.76959 45.5327 6.51482 45.1443 6.16476L44.3487 5.44769C43.6908 4.85472 43.3159 4.01502 43.3159 3.13459V1.99666ZM60.0643 17.0124C60.0643 17.3016 59.9369 17.5788 59.71 17.7833C59.4832 17.9878 59.1755 18.1026 58.8547 18.1026C58.5777 18.1026 58.3105 18.017 58.0967 17.862C58.4607 18.8256 59.3921 19.7387 60.8087 18.2704C62.0593 16.9059 60.7531 14.0282 59.4805 12.3205C59.0563 11.7514 58.36 11.4774 57.6451 11.4774C56.9302 11.4774 56.2339 11.7514 55.8097 12.3205C54.5371 14.0282 53.2309 16.9059 54.4815 18.2704C55.8981 19.7387 56.8295 18.8256 57.1935 17.862C56.9797 18.017 56.7125 18.1026 56.4355 18.1026C56.1147 18.1026 55.807 17.9878 55.5801 17.7833C55.3533 17.5788 55.2259 17.3016 55.2259 17.0124H60.0643ZM53.0129 8.49379H49.6431L52.2988 10.5972C52.8832 11.06 53.7374 10.9121 54.099 10.2854C54.5556 9.49411 53.9492 8.49379 53.0129 8.49379ZM62.2773 8.49379H65.6471L62.9914 10.5972C62.407 11.06 61.5528 10.9121 61.1912 10.2854C60.7346 9.49411 61.341 8.49379 62.2773 8.49379Z" fill="#9B9B9B"/>
<path d="M75.9886 20.8875H78.974V9.62654H75.9886V20.8875ZM75.9886 7.87044H78.974V5.19238H75.9886V7.87044Z" fill="#9B9B9B"/>
<path d="M80.8977 24.5753H83.8831V19.6143H83.927C84.5636 20.5802 85.5953 21.2168 87.1757 21.2168C90.0733 21.2168 92.0489 18.9119 92.0489 15.268C92.0489 11.7558 90.1392 9.31921 87.1538 9.31921C85.6172 9.31921 84.5636 10.0436 83.8392 11.0314H83.7733V9.62653H80.8977V24.5753ZM86.5392 18.7363C84.7611 18.7363 83.8172 17.3973 83.8172 15.3558C83.8172 13.3363 84.5636 11.7338 86.4294 11.7338C88.2733 11.7338 89.0197 13.2265 89.0197 15.3558C89.0197 17.4851 88.0538 18.7363 86.5392 18.7363Z" fill="#9B9B9B"/>
<path d="M98.0043 21.2168C100.814 21.2168 102.746 19.8558 102.746 17.5948C102.746 14.9607 100.66 14.4338 98.7725 14.0387C97.1701 13.7095 95.6774 13.6217 95.6774 12.6558C95.6774 11.8436 96.4457 11.4046 97.6091 11.4046C98.8823 11.4046 99.6506 11.8436 99.7823 13.0509H102.482C102.263 10.7899 100.616 9.31921 97.653 9.31921C95.0847 9.31921 93.0652 10.4826 93.0652 12.9192C93.0652 15.3777 95.0408 15.9265 97.0604 16.3217C98.5969 16.629 100.024 16.7387 100.024 17.8143C100.024 18.6046 99.2774 19.1095 97.9604 19.1095C96.6213 19.1095 95.6994 18.5387 95.5018 17.2436H92.736C92.9116 19.6363 94.7335 21.2168 98.0043 21.2168Z" fill="#9B9B9B"/>
<path d="M114.081 20.8876V9.62659H111.095V16.1241C111.095 17.6168 110.239 18.6705 108.834 18.6705C107.561 18.6705 106.968 17.9461 106.968 16.629V9.62659H104.005V17.1339C104.005 19.5924 105.41 21.1949 107.912 21.1949C109.493 21.1949 110.371 20.6022 111.139 19.5705H111.205V20.8876H114.081Z" fill="#9B9B9B"/>
<path d="M116.012 20.8875H118.997V14.346C118.997 12.8534 119.809 11.8875 121.016 11.8875C122.114 11.8875 122.751 12.546 122.751 13.8192V20.8875H125.736V14.346C125.736 12.8534 126.504 11.8875 127.756 11.8875C128.853 11.8875 129.49 12.546 129.49 13.8192V20.8875H132.475V13.3143C132.475 10.8558 131.136 9.31921 128.765 9.31921C127.338 9.31921 126.153 10.0656 125.385 11.2948H125.341C124.792 10.1095 123.651 9.31921 122.224 9.31921C120.665 9.31921 119.568 10.1095 118.953 11.1412H118.887V9.62653H116.012V20.8875Z" fill="#9B9B9B"/>
<path d="M0.618469 20.8875H3.60383V5.19238H0.618469V20.8875Z" fill="#9B9B9B"/>
<path d="M10.9035 21.2168C14.3937 21.2168 16.7864 18.6265 16.7864 15.268C16.7864 11.9095 14.3937 9.31921 10.9035 9.31921C7.41322 9.31921 5.02054 11.9095 5.02054 15.268C5.02054 18.6265 7.41322 21.2168 10.9035 21.2168ZM10.9035 18.9338C9.0596 18.9338 8.04984 17.4631 8.04984 15.268C8.04984 13.0729 9.0596 11.5802 10.9035 11.5802C12.7255 11.5802 13.7572 13.0729 13.7572 15.268C13.7572 17.4631 12.7255 18.9338 10.9035 18.9338Z" fill="#9B9B9B"/>
<path d="M23.1351 24.729C24.8034 24.729 26.2522 24.3338 27.1961 23.4558C28.0302 22.6875 28.5351 21.6119 28.5351 20.0314V9.62653H25.6595V10.8119H25.6156C24.9351 9.86799 23.9034 9.31921 22.4985 9.31921C19.6448 9.31921 17.6253 11.4704 17.6253 14.829C17.6253 18.2314 20.0839 20.207 22.5863 20.207C24.0131 20.207 24.8692 19.6363 25.5278 18.8899H25.5936V20.1192C25.5936 21.6558 24.7814 22.468 23.0912 22.468C21.7083 22.468 21.0717 21.9192 20.8302 21.2168H17.8668C18.1741 23.4119 20.0619 24.729 23.1351 24.729ZM23.0912 17.8143C21.5546 17.8143 20.5448 16.6948 20.5448 14.7851C20.5448 12.8973 21.5546 11.7119 23.0692 11.7119C24.8692 11.7119 25.7473 13.1168 25.7473 14.7631C25.7473 16.4314 24.979 17.8143 23.0912 17.8143Z" fill="#9B9B9B"/>
<path d="M35.7915 21.2168C39.2817 21.2168 41.6744 18.6265 41.6744 15.268C41.6744 11.9095 39.2817 9.31921 35.7915 9.31921C32.3013 9.31921 29.9086 11.9095 29.9086 15.268C29.9086 18.6265 32.3013 21.2168 35.7915 21.2168ZM35.7915 18.9338C33.9476 18.9338 32.9378 17.4631 32.9378 15.268C32.9378 13.0729 33.9476 11.5802 35.7915 11.5802C37.6134 11.5802 38.6452 13.0729 38.6452 15.268C38.6452 17.4631 37.6134 18.9338 35.7915 18.9338Z" fill="#9B9B9B"/>
<path d="M132.34 7.16805C132.34 6.66291 132.749 6.25342 133.255 6.25342H135.084C135.589 6.25342 135.999 6.66291 135.999 7.16805C135.999 7.67316 135.589 8.08269 135.084 8.08269H133.255C132.749 8.08269 132.34 7.67316 132.34 7.16805Z" fill="#9B9B9B"/>
</g>
<defs>
<clipPath id="clip0_402_31133">
<rect width="136.098" height="30" fill="white" transform="translate(0.11792)"/>
</clipPath>
</defs>
</svg>
