<svg width="153" height="30" viewBox="0 0 153 30" fill="none" xmlns="http://www.w3.org/2000/svg">
<g clip-path="url(#clip0_402_31119)">
<path fill-rule="evenodd" clip-rule="evenodd" d="M19.9168 8.76398C18.6834 7.93988 17.2334 7.5 15.75 7.5V0C18.7167 0 21.6168 0.879735 24.0836 2.52796C26.5503 4.17617 28.4729 6.51886 29.6082 9.25973C30.7435 12.0006 31.0406 15.0167 30.4618 17.9263C29.883 20.8361 28.4544 23.5088 26.3566 25.6066C24.2588 27.7044 21.5861 29.133 18.6764 29.7118C15.7667 30.2906 12.7506 29.9935 10.0097 28.8582C7.26887 27.7229 4.92619 25.8003 3.27797 23.3335C1.62975 20.8668 0.750015 17.9667 0.750015 15H8.25002C8.25002 16.4834 8.68989 17.9334 9.51399 19.1668C10.3381 20.4002 11.5094 21.3614 12.8799 21.9291C14.2503 22.4968 15.7583 22.6453 17.2132 22.3559C18.668 22.0665 20.0044 21.3522 21.0533 20.3033C22.1022 19.2544 22.8165 17.918 23.1059 16.4632C23.3953 15.0083 23.2468 13.5003 22.6791 12.1299C22.1114 10.7594 21.1502 9.58807 19.9168 8.76398Z" fill="#9B9B9B"/>
<path fill-rule="evenodd" clip-rule="evenodd" d="M8.25001 3.9637e-06C8.25001 0.984918 8.05602 1.96019 7.67911 2.87013C7.3022 3.78007 6.74976 4.60686 6.05331 5.30331C5.35688 5.99975 4.53009 6.55219 3.62014 6.9291C2.7102 7.30601 1.73493 7.5 0.750016 7.5L0.750015 15C2.71984 15 4.67038 14.612 6.49027 13.8582C8.31016 13.1044 9.96376 11.9995 11.3566 10.6066C12.7495 9.21375 13.8544 7.56015 14.6082 5.74026C15.362 3.92037 15.75 1.96983 15.75 0L8.25001 3.9637e-06Z" fill="#9B9B9B"/>
<path d="M94.9643 10.8394H91.3253V22.3986H94.9643V10.8394Z" fill="#9B9B9B"/>
<path d="M91.7303 8.67495C92.1105 9.0555 92.586 9.24577 93.1568 9.24577C93.7275 9.24577 94.1955 9.0555 94.56 8.67495C94.9253 8.27857 95.1075 7.80285 95.1075 7.24789C95.1075 6.67708 94.9253 6.20137 94.56 5.82083C94.1955 5.44027 93.7275 5.25 93.1568 5.25C92.586 5.25 92.1105 5.44027 91.7303 5.82083C91.365 6.20137 91.1828 6.67708 91.1828 7.24789C91.1828 7.80285 91.365 8.27857 91.7303 8.67495Z" fill="#9B9B9B"/>
<path d="M39.1172 22.3987V5.60681H42.8513V19.1164H50.2959V22.3987H39.1172Z" fill="#9B9B9B"/>
<path fill-rule="evenodd" clip-rule="evenodd" d="M57.0206 22.6603C55.8314 22.6603 54.7532 22.3987 53.7859 21.8754C52.8345 21.3363 52.0814 20.6069 51.5264 19.6872C50.9714 18.7675 50.6939 17.7369 50.6939 16.5952C50.6939 15.4536 50.9714 14.4309 51.5264 13.5271C52.0814 12.6232 52.8345 11.9097 53.7859 11.3865C54.7373 10.8473 55.8155 10.5778 57.0206 10.5778C58.2257 10.5778 59.3039 10.8394 60.2552 11.3626C61.2066 11.8859 61.9598 12.6074 62.5148 13.5271C63.0698 14.4309 63.3473 15.4536 63.3473 16.5952C63.3473 17.7369 63.0698 18.7675 62.5148 19.6872C61.9598 20.6069 61.2066 21.3363 60.2552 21.8754C59.3039 22.3987 58.2257 22.6603 57.0206 22.6603ZM57.0206 19.3543C57.5438 19.3543 58.0037 19.2433 58.4001 19.0213C58.7965 18.7834 59.0978 18.4584 59.3039 18.0461C59.5259 17.618 59.6369 17.1343 59.6369 16.5952C59.6369 16.0561 59.5259 15.5884 59.3039 15.192C59.0819 14.7797 58.7727 14.4626 58.3763 14.2406C57.9957 14.0027 57.5438 13.8838 57.0206 13.8838C56.5132 13.8838 56.0613 14.0027 55.6649 14.2406C55.2685 14.4626 54.9593 14.7797 54.7373 15.192C54.5153 15.6043 54.4043 16.0799 54.4043 16.619C54.4043 17.1423 54.5153 17.618 54.7373 18.0461C54.9593 18.4584 55.2685 18.7834 55.6649 19.0213C56.0613 19.2433 56.5132 19.3543 57.0206 19.3543Z" fill="#9B9B9B"/>
<path fill-rule="evenodd" clip-rule="evenodd" d="M66.2293 26.9176C67.1965 27.3615 68.3144 27.5835 69.5829 27.5835C70.8197 27.5835 71.9217 27.3378 72.8889 26.8462C73.8562 26.3547 74.6172 25.6729 75.1722 24.8008C75.7271 23.9287 76.005 22.8981 76.005 21.7088V10.8393H72.437V11.616C72.1716 11.3926 71.8703 11.2051 71.5332 11.0534C70.9148 10.7521 70.2092 10.6014 69.4164 10.6014C68.354 10.6014 67.4105 10.8552 66.5861 11.3625C65.7614 11.8541 65.1114 12.5359 64.6357 13.408C64.16 14.2643 63.9222 15.2315 63.9222 16.3098C63.9222 17.3721 64.16 18.3393 64.6357 19.2114C65.1114 20.0835 65.7614 20.7733 66.5861 21.2807C67.4105 21.7881 68.354 22.0418 69.4164 22.0418C70.1933 22.0418 70.8989 21.8912 71.5332 21.5899C71.8404 21.444 72.1179 21.272 72.3656 21.0739V21.804C72.3656 22.6126 72.104 23.2389 71.5808 23.6829C71.0734 24.1269 70.3678 24.3489 69.464 24.3489C68.7346 24.3489 68.1083 24.222 67.585 23.9683C67.0776 23.7147 66.6177 23.342 66.2054 22.8504L63.9698 25.0862C64.5247 25.879 65.2779 26.4895 66.2293 26.9176ZM71.4143 18.4741C71.0495 18.6961 70.6136 18.8071 70.1061 18.8071C69.5987 18.8071 69.1547 18.6961 68.7742 18.4741C68.4095 18.2521 68.1241 17.9508 67.918 17.5703C67.7118 17.1739 67.6088 16.7537 67.6088 16.3098C67.6088 15.834 67.7118 15.4059 67.918 15.0254C68.1241 14.6448 68.4174 14.3436 68.798 14.1216C69.1785 13.8996 69.6146 13.7886 70.1061 13.7886C70.6136 13.7886 71.0495 13.8996 71.4143 14.1216C71.7948 14.3436 72.0802 14.6448 72.2705 15.0254C72.4766 15.4059 72.5797 15.834 72.5797 16.3098C72.5797 16.7854 72.4766 17.2135 72.2705 17.5941C72.0802 17.9588 71.7948 18.2521 71.4143 18.4741Z" fill="#9B9B9B"/>
<path fill-rule="evenodd" clip-rule="evenodd" d="M83.6633 22.6603C82.4738 22.6603 81.3953 22.3987 80.4285 21.8754C79.4768 21.3363 78.7238 20.6069 78.1688 19.6872C77.6138 18.7675 77.3363 17.7369 77.3363 16.5952C77.3363 15.4536 77.6138 14.4309 78.1688 13.5271C78.7238 12.6232 79.4768 11.9097 80.4285 11.3865C81.3795 10.8473 82.458 10.5778 83.6633 10.5778C84.8678 10.5778 85.9463 10.8394 86.8973 11.3626C87.849 11.8859 88.602 12.6074 89.157 13.5271C89.712 14.4309 89.9895 15.4536 89.9895 16.5952C89.9895 17.7369 89.712 18.7675 89.157 19.6872C88.602 20.6069 87.849 21.3363 86.8973 21.8754C85.9463 22.3987 84.8678 22.6603 83.6633 22.6603ZM83.6633 19.3543C84.186 19.3543 84.6458 19.2433 85.0425 19.0213C85.4385 18.7834 85.74 18.4584 85.9463 18.0461C86.1683 17.618 86.2793 17.1343 86.2793 16.5952C86.2793 16.0561 86.1683 15.5884 85.9463 15.192C85.7243 14.7797 85.4153 14.4626 85.0185 14.2406C84.6383 14.0027 84.186 13.8838 83.6633 13.8838C83.1555 13.8838 82.7033 14.0027 82.3073 14.2406C81.9105 14.4626 81.6015 14.7797 81.3795 15.192C81.1575 15.6043 81.0465 16.0799 81.0465 16.619C81.0465 17.1423 81.1575 17.618 81.3795 18.0461C81.6015 18.4584 81.9105 18.7834 82.3073 19.0213C82.7033 19.2433 83.1555 19.3543 83.6633 19.3543Z" fill="#9B9B9B"/>
<path fill-rule="evenodd" clip-rule="evenodd" d="M103.711 22.6364C102.935 22.6364 102.221 22.4858 101.57 22.1845C101.228 22.026 100.919 21.8367 100.643 21.6166V27.2744H97.0515V10.8393H100.691V11.6371C100.955 11.4212 101.248 11.2345 101.57 11.0772C102.221 10.76 102.935 10.6014 103.711 10.6014C104.805 10.6014 105.773 10.8631 106.613 11.3864C107.469 11.9096 108.135 12.6231 108.611 13.527C109.103 14.4308 109.348 15.4614 109.348 16.6189C109.348 17.7765 109.103 18.8071 108.611 19.7109C108.135 20.6148 107.469 21.3282 106.613 21.8515C105.773 22.3748 104.805 22.6364 103.711 22.6364ZM103.046 19.3542C103.568 19.3542 104.021 19.2352 104.401 18.9974C104.798 18.7596 105.107 18.4344 105.329 18.0222C105.551 17.61 105.662 17.1422 105.662 16.6189C105.662 16.0798 105.551 15.6042 105.329 15.1919C105.107 14.7796 104.798 14.4625 104.401 14.2405C104.021 14.0026 103.577 13.8837 103.069 13.8837C102.562 13.8837 102.11 14.0026 101.714 14.2405C101.333 14.4625 101.032 14.7796 100.81 15.1919C100.588 15.6042 100.477 16.0798 100.477 16.6189C100.477 17.1422 100.58 17.61 100.786 18.0222C101.008 18.4344 101.317 18.7596 101.714 18.9974C102.11 19.2352 102.554 19.3542 103.046 19.3542Z" fill="#9B9B9B"/>
<path d="M112.91 22.4223C113.576 22.5968 114.249 22.6839 114.931 22.6839C116.374 22.6839 117.515 22.351 118.356 21.685C119.212 21.0191 119.64 20.1232 119.64 18.9974C119.64 18.268 119.506 17.6813 119.236 17.2374C118.967 16.7775 118.618 16.4128 118.19 16.1433C117.761 15.8737 117.309 15.6596 116.834 15.501C116.358 15.3425 115.906 15.2077 115.478 15.0967C115.05 14.9857 114.701 14.8589 114.431 14.7162C114.162 14.5734 114.027 14.3832 114.027 14.1453C114.027 13.9233 114.131 13.7568 114.336 13.6458C114.542 13.519 114.851 13.4556 115.264 13.4556C115.692 13.4556 116.128 13.5428 116.572 13.7172C117.032 13.8916 117.444 14.193 117.809 14.6211L119.878 12.528C119.355 11.862 118.673 11.3625 117.833 11.0296C117.008 10.6808 116.105 10.5063 115.121 10.5063C114.186 10.5063 113.369 10.6649 112.672 10.982C111.974 11.2992 111.434 11.7352 111.054 12.2901C110.674 12.8292 110.483 13.4715 110.483 14.2167C110.483 14.9144 110.618 15.4932 110.888 15.953C111.157 16.3969 111.506 16.7458 111.934 16.9995C112.362 17.2532 112.814 17.4514 113.29 17.5941C113.765 17.7368 114.217 17.8716 114.646 17.9985C115.073 18.1095 115.423 18.2442 115.692 18.4028C115.978 18.5455 116.12 18.7596 116.12 19.0449C116.12 19.2669 116.001 19.4413 115.763 19.5682C115.541 19.695 115.216 19.7585 114.788 19.7585C114.169 19.7585 113.599 19.6475 113.076 19.4255C112.553 19.1877 112.1 18.8626 111.72 18.4503L109.651 20.5434C110.048 20.9715 110.523 21.3521 111.078 21.685C111.649 22.0021 112.259 22.2479 112.91 22.4223Z" fill="#9B9B9B"/>
<path d="M126.276 22.6602C125.214 22.6602 124.271 22.4461 123.446 22.018C122.637 21.574 122.003 20.9715 121.544 20.2104C121.083 19.4335 120.854 18.5455 120.854 17.5465V10.8394H124.493V17.499C124.493 17.8954 124.556 18.2363 124.683 18.5217C124.826 18.8071 125.032 19.0291 125.301 19.1877C125.571 19.3462 125.896 19.4255 126.276 19.4255C126.815 19.4255 127.244 19.259 127.561 18.926C127.878 18.5772 128.036 18.1015 128.036 17.499V10.8394H131.675V17.5228C131.675 18.5376 131.446 19.4335 130.985 20.2104C130.526 20.9715 129.892 21.574 129.083 22.018C128.274 22.4461 127.339 22.6602 126.276 22.6602Z" fill="#9B9B9B"/>
<path d="M137.123 10.8393H133.484V22.3986H137.123V15.6438C137.123 15.2474 137.203 14.9144 137.361 14.6448C137.536 14.3753 137.766 14.1691 138.051 14.0265C138.337 13.8678 138.661 13.7886 139.026 13.7886C139.549 13.7886 139.985 13.9551 140.334 14.2881C140.699 14.6052 140.881 15.0571 140.881 15.6438V22.3986H144.521V15.6438C144.521 15.2474 144.6 14.9144 144.758 14.6448C144.933 14.3753 145.162 14.1691 145.448 14.0265C145.733 13.8678 146.059 13.7886 146.423 13.7886C146.947 13.7886 147.383 13.9551 147.731 14.2881C148.096 14.6052 148.278 15.0571 148.278 15.6438V22.3986H151.918V15.2394C151.918 14.2722 151.711 13.4477 151.299 12.7659C150.902 12.0681 150.356 11.537 149.658 11.1723C148.976 10.7917 148.191 10.6014 147.303 10.6014C146.399 10.6014 145.583 10.7997 144.854 11.1961C144.38 11.4486 143.966 11.7746 143.611 12.1739C143.28 11.7562 142.878 11.4144 142.403 11.1485C141.77 10.7838 141.048 10.6014 140.239 10.6014C139.383 10.6014 138.614 10.7838 137.933 11.1485C137.636 11.3002 137.366 11.4819 137.123 11.6937V10.8393Z" fill="#9B9B9B"/>
</g>
<defs>
<clipPath id="clip0_402_31119">
<rect width="151.5" height="30" fill="white" transform="translate(0.750015)"/>
</clipPath>
</defs>
</svg>
