<svg width="166" height="30" viewBox="0 0 166 30" fill="none" xmlns="http://www.w3.org/2000/svg">
<g clip-path="url(#clip0_402_31084)">
<path d="M15.3333 30C23.6178 30 30.3333 23.2845 30.3333 15V4.5C30.3333 3.30653 29.8592 2.16193 29.0153 1.31802C28.1714 0.474106 27.0268 0 25.8333 0L16.0833 0V6.5805C16.0833 8.082 16.1748 9.6375 16.9623 10.9155C17.5261 11.8314 18.2803 12.6153 19.1737 13.2141C20.0671 13.8129 21.0789 14.2124 22.1403 14.3857L22.4276 14.4323C22.546 14.4727 22.6488 14.5492 22.7216 14.651C22.7944 14.7528 22.8335 14.8749 22.8335 15C22.8335 15.1251 22.7944 15.2472 22.7216 15.349C22.6488 15.4508 22.546 15.5273 22.4276 15.5677L22.1403 15.6143C20.5894 15.8676 19.1573 16.6017 18.0462 17.7128C16.935 18.824 16.2009 20.2561 15.9476 21.807L15.9011 22.0942C15.8606 22.2127 15.7841 22.3155 15.6823 22.3883C15.5805 22.4611 15.4585 22.5002 15.3333 22.5002C15.2082 22.5002 15.0862 22.4611 14.9843 22.3883C14.8825 22.3155 14.806 22.2127 14.7656 22.0942L14.7191 21.807C14.5457 20.7456 14.1461 19.7338 13.5474 18.8404C12.9486 17.947 12.1647 17.1928 11.2488 16.629C9.97082 15.8415 8.41532 15.75 6.91382 15.75H0.351318C0.743568 23.6858 7.30082 30 15.3333 30Z" fill="#9B9B9B"/>
<path d="M0.333313 14.25H6.91381C8.41531 14.25 9.97081 14.1585 11.2488 13.371C12.2478 12.7555 13.0888 11.9145 13.7043 10.9155C14.4918 9.6375 14.5833 8.082 14.5833 6.5805V0H4.83331C3.63984 0 2.49525 0.474106 1.65133 1.31802C0.807419 2.16193 0.333313 3.30653 0.333313 4.5L0.333313 14.25ZM35.1746 1.5C35.1746 1.89782 35.0165 2.27936 34.7352 2.56066C34.4539 2.84196 34.0724 3 33.6746 3C33.2767 3 32.8952 2.84196 32.6139 2.56066C32.3326 2.27936 32.1746 1.89782 32.1746 1.5C32.1746 1.10218 32.3326 0.720644 32.6139 0.43934C32.8952 0.158035 33.2767 0 33.6746 0C34.0724 0 34.4539 0.158035 34.7352 0.43934C35.0165 0.720644 35.1746 1.10218 35.1746 1.5ZM159.117 9.078C163.31 9.078 165.333 12.0068 165.333 15.399V21.7703H160.945V16.155C160.945 14.6175 160.384 13.3485 158.775 13.3485C157.167 13.3485 156.63 14.6175 156.63 16.155V21.7695H152.242V16.155C152.242 14.6175 151.706 13.3485 150.096 13.3485C148.488 13.3485 147.927 14.6175 147.927 16.155V21.7695H143.539V15.3983C143.539 12.006 145.562 9.07725 149.755 9.07725C152.047 9.07725 153.705 9.98025 154.461 11.469C155.265 9.98025 157.02 9.0765 159.117 9.0765V9.078ZM135.654 17.865C137.067 17.865 137.677 16.5713 137.677 15.033V9.5655H142.065V15.57C142.065 19.158 139.968 22.1362 135.654 22.1362C131.338 22.1362 129.242 19.1587 129.242 15.57V9.5655H133.63V15.033C133.63 16.5705 134.239 17.865 135.654 17.865ZM122.79 22.1603C120.035 22.1603 118.255 21.2085 117.207 19.3538L120.376 17.5718C120.815 18.3525 121.473 18.7432 122.57 18.7432C123.472 18.7432 123.886 18.426 123.886 18.0353C123.886 16.5465 117.45 18.06 117.45 13.3253C117.45 11.0303 119.4 9.1755 122.716 9.1755C125.617 9.1755 127.202 10.5907 127.909 11.958L124.74 13.764C124.472 13.032 123.642 12.5925 122.814 12.5925C122.18 12.5925 121.839 12.861 121.839 13.227C121.839 14.7405 128.274 13.3492 128.274 17.9377C128.274 20.5005 125.763 22.1603 122.79 22.1603ZM107.458 27.384H103.07V15.6435C103.07 11.9085 105.873 9.1995 109.774 9.1995C113.577 9.1995 116.478 12.1042 116.478 15.6435C116.478 19.5487 113.894 22.1362 110.018 22.1362C109.116 22.1362 108.214 21.8678 107.458 21.4523V27.384ZM109.774 18.0112C111.164 18.0112 112.09 16.9373 112.09 15.6675C112.09 14.3745 111.164 13.3245 109.774 13.3245C108.384 13.3245 107.458 14.3745 107.458 15.6683C107.458 16.9373 108.384 18.0112 109.774 18.0112ZM98.6741 8.2725C97.2356 8.2725 96.0416 7.07625 96.0416 5.63625C96.0416 4.19625 97.2356 3 98.6741 3C100.113 3 101.307 4.19625 101.307 5.63625C101.307 7.07625 100.113 8.2725 98.6741 8.2725ZM96.4803 9.5655H100.869V21.7703H96.4803V9.5655ZM88.0608 22.1362C84.2576 22.1362 81.3566 19.2075 81.3566 15.6435C81.3566 12.1042 84.2576 9.1755 88.0608 9.1755C91.8641 9.1755 94.7651 12.1042 94.7651 15.6435C94.7651 19.2075 91.8641 22.1362 88.0608 22.1362ZM88.0608 18.0112C89.4506 18.0112 90.3768 16.9373 90.3768 15.6675C90.3768 14.3745 89.4506 13.3005 88.0608 13.3005C86.6711 13.3005 85.7448 14.3745 85.7448 15.6675C85.7448 16.9373 86.6711 18.0112 88.0608 18.0112ZM73.0706 27.75C70.0481 27.75 67.8536 26.4075 66.7323 24.015L70.3646 22.0627C70.7546 22.893 71.4858 23.7472 72.9971 23.7472C74.5826 23.7472 75.6303 22.746 75.7526 20.9888C75.1676 21.5018 74.2406 21.8918 72.8516 21.8918C69.4623 21.8918 66.7316 19.2803 66.7316 15.6188C66.7316 12.0803 69.6333 9.1995 73.4366 9.1995C77.3373 9.1995 80.1408 11.9092 80.1408 15.6435V20.4765C80.1408 24.87 77.0928 27.75 73.0706 27.75ZM73.3631 17.7675C74.6793 17.7675 75.6791 16.8638 75.6791 15.5212C75.6791 14.2035 74.6801 13.3245 73.3631 13.3245C72.0708 13.3245 71.0471 14.2035 71.0471 15.522C71.0471 16.8645 72.0708 17.7675 73.3631 17.7675ZM59.2886 22.1362C55.4853 22.1362 52.5836 19.2075 52.5836 15.6435C52.5836 12.1042 55.4853 9.1755 59.2886 9.1755C63.0911 9.1755 65.9928 12.1042 65.9928 15.6435C65.9928 19.2075 63.0918 22.1362 59.2886 22.1362ZM59.2886 18.0112C60.6783 18.0112 61.6046 16.9373 61.6046 15.6675C61.6046 14.3745 60.6783 13.3005 59.2886 13.3005C57.8988 13.3005 56.9726 14.3745 56.9726 15.6675C56.9726 16.9373 57.8988 18.0112 59.2886 18.0112ZM44.5931 5.295V17.6205H51.8583V21.7703H43.9833C41.2046 21.7703 40.0833 20.3055 40.0833 17.9865V5.295H44.5931Z" fill="#9B9B9B"/>
</g>
<defs>
<clipPath id="clip0_402_31084">
<rect width="165" height="30" fill="white" transform="translate(0.333313)"/>
</clipPath>
</defs>
</svg>
