<svg width="139" height="33" viewBox="0 0 139 33" fill="none" xmlns="http://www.w3.org/2000/svg">
<g clip-path="url(#clip0_402_31095)">
<path d="M41.7919 23.6016H51.4941V20.7041H45.2403V9.78992H41.7919V23.6016Z" fill="#9B9B9B"/>
<path d="M57.2423 21.6699C55.859 21.6699 55.1382 20.4722 55.1382 18.6757C55.1382 16.8792 55.859 15.6623 57.2423 15.6623C58.6255 15.6623 59.3659 16.8792 59.3659 18.6757C59.3659 20.4722 58.6255 21.6699 57.2423 21.6699ZM57.2618 23.9106C60.4764 23.9106 62.5805 21.6506 62.5805 18.6757C62.5805 15.7009 60.4764 13.4408 57.2618 13.4408C54.0667 13.4408 51.9236 15.7009 51.9236 18.6757C51.9236 21.6506 54.0667 23.9106 57.2618 23.9106Z" fill="#9B9B9B"/>
<path d="M68.1446 27.0207C69.6253 27.0207 70.9306 26.6923 71.8073 25.9197C72.6061 25.2049 73.1321 24.1232 73.1321 22.6358V13.7113H70.0929V14.7737H70.0539C69.4694 13.9431 68.5732 13.4215 67.2484 13.4215C64.7742 13.4215 63.0597 15.4691 63.0597 18.3667C63.0597 21.3995 65.1443 23.0607 67.3848 23.0607C68.5927 23.0607 69.3525 22.5778 69.937 21.921H70.0149V22.9062C70.0149 24.1039 69.4499 24.7993 68.1057 24.7993C67.0536 24.7993 66.5276 24.355 66.3522 23.8334H63.274C63.5858 25.9003 65.3976 27.0207 68.1446 27.0207ZM68.1251 20.7234C66.9367 20.7234 66.1574 19.7575 66.1574 18.2701C66.1574 16.7634 66.9367 15.7975 68.1251 15.7975C69.4499 15.7975 70.1513 16.9179 70.1513 18.2508C70.1513 19.6416 69.5084 20.7234 68.1251 20.7234Z" fill="#9B9B9B"/>
<path d="M79.3814 21.6699C77.9982 21.6699 77.2773 20.4722 77.2773 18.6757C77.2773 16.8792 77.9982 15.6623 79.3814 15.6623C80.7646 15.6623 81.5047 16.8792 81.5047 18.6757C81.5047 20.4722 80.7646 21.6699 79.3814 21.6699ZM79.4009 23.9106C82.6151 23.9106 84.7192 21.6506 84.7192 18.6757C84.7192 15.7009 82.6151 13.4408 79.4009 13.4408C76.2058 13.4408 74.0627 15.7009 74.0627 18.6757C74.0627 21.6506 76.2058 23.9106 79.4009 23.9106Z" fill="#9B9B9B"/>
<path d="M85.6471 23.6016H88.8227V13.7113H85.6471V23.6016ZM85.6471 12.3398H88.8227V9.78992H85.6471V12.3398Z" fill="#9B9B9B"/>
<path d="M90.2003 26.8662H93.3759V22.5778H93.4149C94.0383 23.4084 94.954 23.9107 96.2398 23.9107C98.8504 23.9107 100.584 21.8631 100.584 18.6564C100.584 15.6816 98.9673 13.4215 96.3177 13.4215C94.954 13.4215 93.9798 14.0203 93.298 14.9089H93.2395V13.7113H90.2003V26.8662ZM95.4215 21.4767C94.0578 21.4767 93.2785 20.3757 93.2785 18.7723C93.2785 17.169 93.9798 15.952 95.3631 15.952C96.7269 15.952 97.3698 17.0724 97.3698 18.7723C97.3698 20.4529 96.6294 21.4767 95.4215 21.4767Z" fill="#9B9B9B"/>
<path d="M105.755 23.9107C108.365 23.9107 110.294 22.7903 110.294 20.6268C110.294 18.0962 108.229 17.6519 106.475 17.3622C105.209 17.1304 104.079 17.0338 104.079 16.3384C104.079 15.7202 104.683 15.4305 105.462 15.4305C106.339 15.4305 106.943 15.7009 107.06 16.5895H109.982C109.826 14.6385 108.307 13.4215 105.482 13.4215C103.124 13.4215 101.176 14.5033 101.176 16.5895C101.176 18.9076 103.027 19.3712 104.761 19.6609C106.086 19.8927 107.294 19.9893 107.294 20.8779C107.294 21.5154 106.69 21.8631 105.735 21.8631C104.683 21.8631 104.021 21.3801 103.904 20.395H100.903C101.001 22.5778 102.832 23.9107 105.755 23.9107Z" fill="#9B9B9B"/>
<path d="M114.608 23.8914C115.991 23.8914 116.868 23.3505 117.588 22.3847H117.647V23.6016H120.686V13.7113H117.51V19.236C117.51 20.4143 116.848 21.2256 115.757 21.2256C114.744 21.2256 114.257 20.6268 114.257 19.5451V13.7113H111.101V20.2018C111.101 22.404 112.309 23.8914 114.608 23.8914Z" fill="#9B9B9B"/>
<path d="M122.068 23.6016H125.243V18.0576C125.243 16.8793 125.828 16.0486 126.821 16.0486C127.776 16.0486 128.224 16.6668 128.224 17.7292V23.6016H131.4V18.0576C131.4 16.8793 131.965 16.0486 132.978 16.0486C133.932 16.0486 134.381 16.6668 134.381 17.7292V23.6016H137.556V17.169C137.556 14.9476 136.426 13.4215 134.166 13.4215C132.88 13.4215 131.809 13.9624 131.03 15.16H130.991C130.484 14.0976 129.49 13.4215 128.185 13.4215C126.743 13.4215 125.789 14.0976 125.165 15.1214H125.107V13.7113H122.068V23.6016Z" fill="#9B9B9B"/>
<path fill-rule="evenodd" clip-rule="evenodd" d="M16.4842 32.4552C25.4508 32.4552 32.7195 25.2481 32.7195 16.3577C32.7195 7.46725 25.4508 0.260132 16.4842 0.260132C7.51776 0.260132 0.248978 7.46725 0.248978 16.3577C0.248978 25.2481 7.51776 32.4552 16.4842 32.4552ZM18.9902 12.6976C20.3741 11.3253 20.3741 9.10056 18.9902 7.72832C17.6062 6.3561 15.3624 6.3561 13.9784 7.72832C12.5945 9.10056 12.5945 11.3253 13.9784 12.6976L16.4842 15.1821L18.9902 12.6976ZM20.1757 18.8423C21.5597 20.2146 23.8035 20.2146 25.1875 18.8423C26.5714 17.4701 26.5714 15.2453 25.1875 13.8731C23.8035 12.5009 21.5597 12.5009 20.1757 13.8731L17.6699 16.3577L20.1757 18.8423ZM18.9902 24.9871C20.3741 23.6148 20.3741 21.3901 18.9902 20.0178L16.4842 17.5333L13.9784 20.0178C12.5945 21.3901 12.5945 23.6148 13.9784 24.9871C15.3624 26.3593 17.6062 26.3593 18.9902 24.9871ZM7.78104 18.8423C6.39711 17.4701 6.39711 15.2453 7.78104 13.8731C9.16504 12.5009 11.4088 12.5009 12.7928 13.8731L15.2987 16.3577L12.7928 18.8423C11.4088 20.2146 9.16504 20.2146 7.78104 18.8423Z" fill="#9B9B9B"/>
</g>
<defs>
<clipPath id="clip0_402_31095">
<rect width="138" height="33" fill="white" transform="translate(0.166626)"/>
</clipPath>
</defs>
</svg>
