<svg width="139" height="33" viewBox="0 0 139 33" fill="none" xmlns="http://www.w3.org/2000/svg">
<g clip-path="url(#clip0_402_31107)">
<path d="M42.4586 23.6016H52.1608V20.7041H45.907V9.78992H42.4586V23.6016Z" fill="#9B9B9B"/>
<path d="M57.909 21.6699C56.5257 21.6699 55.8049 20.4722 55.8049 18.6757C55.8049 16.8792 56.5257 15.6623 57.909 15.6623C59.2922 15.6623 60.0326 16.8792 60.0326 18.6757C60.0326 20.4722 59.2922 21.6699 57.909 21.6699ZM57.9285 23.9106C61.1431 23.9106 63.2472 21.6506 63.2472 18.6757C63.2472 15.7009 61.1431 13.4408 57.9285 13.4408C54.7334 13.4408 52.5903 15.7009 52.5903 18.6757C52.5903 21.6506 54.7334 23.9106 57.9285 23.9106Z" fill="#9B9B9B"/>
<path d="M68.8113 27.0207C70.292 27.0207 71.5973 26.6923 72.474 25.9197C73.2728 25.2049 73.7988 24.1232 73.7988 22.6358V13.7113H70.7596V14.7737H70.7206C70.1361 13.9431 69.2399 13.4215 67.9151 13.4215C65.4409 13.4215 63.7264 15.4691 63.7264 18.3667C63.7264 21.3995 65.811 23.0607 68.0515 23.0607C69.2594 23.0607 70.0192 22.5778 70.6037 21.921H70.6816V22.9062C70.6816 24.1039 70.1166 24.7993 68.7724 24.7993C67.7203 24.7993 67.1943 24.355 67.019 23.8334H63.9407C64.2525 25.9003 66.0643 27.0207 68.8113 27.0207ZM68.7919 20.7234C67.6034 20.7234 66.8241 19.7575 66.8241 18.2701C66.8241 16.7634 67.6034 15.7975 68.7919 15.7975C70.1167 15.7975 70.818 16.9179 70.818 18.2508C70.818 19.6416 70.1751 20.7234 68.7919 20.7234Z" fill="#9B9B9B"/>
<path d="M80.0481 21.6699C78.6649 21.6699 77.944 20.4722 77.944 18.6757C77.944 16.8792 78.6649 15.6623 80.0481 15.6623C81.4313 15.6623 82.1714 16.8792 82.1714 18.6757C82.1714 20.4722 81.4313 21.6699 80.0481 21.6699ZM80.0676 23.9106C83.2819 23.9106 85.3859 21.6506 85.3859 18.6757C85.3859 15.7009 83.2819 13.4408 80.0676 13.4408C76.8725 13.4408 74.7294 15.7009 74.7294 18.6757C74.7294 21.6506 76.8725 23.9106 80.0676 23.9106Z" fill="#9B9B9B"/>
<path d="M86.3138 23.6016H89.4894V13.7113H86.3138V23.6016ZM86.3138 12.3398H89.4894V9.78992H86.3138V12.3398Z" fill="#9B9B9B"/>
<path d="M90.867 26.8662H94.0426V22.5778H94.0816C94.705 23.4084 95.6207 23.9107 96.9065 23.9107C99.5171 23.9107 101.251 21.8631 101.251 18.6564C101.251 15.6816 99.634 13.4215 96.9844 13.4215C95.6207 13.4215 94.6465 14.0203 93.9647 14.9089H93.9062V13.7113H90.867V26.8662ZM96.0882 21.4767C94.7245 21.4767 93.9452 20.3757 93.9452 18.7723C93.9452 17.169 94.6466 15.952 96.0298 15.952C97.3936 15.952 98.0365 17.0724 98.0365 18.7723C98.0365 20.4529 97.2961 21.4767 96.0882 21.4767Z" fill="#9B9B9B"/>
<path d="M106.421 23.9107C109.032 23.9107 110.961 22.7903 110.961 20.6268C110.961 18.0962 108.895 17.6519 107.142 17.3622C105.876 17.1304 104.746 17.0338 104.746 16.3384C104.746 15.7202 105.35 15.4305 106.129 15.4305C107.006 15.4305 107.61 15.7009 107.727 16.5895H110.649C110.493 14.6385 108.973 13.4215 106.148 13.4215C103.791 13.4215 101.843 14.5033 101.843 16.5895C101.843 18.9076 103.694 19.3712 105.428 19.6609C106.752 19.8927 107.96 19.9893 107.96 20.8779C107.96 21.5154 107.356 21.8631 106.402 21.8631C105.35 21.8631 104.687 21.3801 104.57 20.395H101.57C101.668 22.5778 103.499 23.9107 106.421 23.9107Z" fill="#9B9B9B"/>
<path d="M115.274 23.8914C116.658 23.8914 117.534 23.3505 118.255 22.3847H118.314V23.6016H121.353V13.7113H118.177V19.236C118.177 20.4143 117.515 21.2256 116.424 21.2256C115.411 21.2256 114.924 20.6268 114.924 19.5451V13.7113H111.767V20.2018C111.767 22.404 112.975 23.8914 115.274 23.8914Z" fill="#9B9B9B"/>
<path d="M122.734 23.6016H125.91V18.0576C125.91 16.8793 126.495 16.0486 127.488 16.0486C128.443 16.0486 128.891 16.6668 128.891 17.7292V23.6016H132.066V18.0576C132.066 16.8793 132.631 16.0486 133.645 16.0486C134.599 16.0486 135.047 16.6668 135.047 17.7292V23.6016H138.223V17.169C138.223 14.9476 137.093 13.4215 134.833 13.4215C133.547 13.4215 132.476 13.9624 131.696 15.16H131.657C131.151 14.0976 130.157 13.4215 128.852 13.4215C127.41 13.4215 126.456 14.0976 125.832 15.1214H125.774V13.7113H122.734V23.6016Z" fill="#9B9B9B"/>
<path fill-rule="evenodd" clip-rule="evenodd" d="M17.1509 32.4552C26.1175 32.4552 33.3862 25.2481 33.3862 16.3577C33.3862 7.46725 26.1175 0.260132 17.1509 0.260132C8.18445 0.260132 0.915672 7.46725 0.915672 16.3577C0.915672 25.2481 8.18445 32.4552 17.1509 32.4552ZM19.6569 12.6976C21.0408 11.3253 21.0408 9.10056 19.6569 7.72832C18.2729 6.3561 16.0291 6.3561 14.6451 7.72832C13.2612 9.10056 13.2612 11.3253 14.6451 12.6976L17.1509 15.1821L19.6569 12.6976ZM20.8424 18.8423C22.2264 20.2146 24.4702 20.2146 25.8542 18.8423C27.2381 17.4701 27.2381 15.2453 25.8542 13.8731C24.4702 12.5009 22.2264 12.5009 20.8424 13.8731L18.3366 16.3577L20.8424 18.8423ZM19.6569 24.9871C21.0408 23.6148 21.0408 21.3901 19.6569 20.0178L17.1509 17.5333L14.6451 20.0178C13.2612 21.3901 13.2612 23.6148 14.6451 24.9871C16.0291 26.3593 18.2729 26.3593 19.6569 24.9871ZM8.44774 18.8423C7.06381 17.4701 7.06381 15.2453 8.44774 13.8731C9.83174 12.5009 12.0755 12.5009 13.4595 13.8731L15.9654 16.3577L13.4595 18.8423C12.0755 20.2146 9.83174 20.2146 8.44774 18.8423Z" fill="#9B9B9B"/>
</g>
<defs>
<clipPath id="clip0_402_31107">
<rect width="138" height="33" fill="white" transform="translate(0.833328)"/>
</clipPath>
</defs>
</svg>
