<svg width="141" height="30" viewBox="0 0 141 30" fill="none" xmlns="http://www.w3.org/2000/svg">
<g clip-path="url(#clip0_402_31088)">
<path fill-rule="evenodd" clip-rule="evenodd" d="M15.2775 3.42525L17.2552 0L22.8622 3.23775L20.8852 6.66225C20.538 7.263 21.0577 7.9935 21.7387 7.86225L25.5277 7.131L26.754 13.4888L22.965 14.2192C16.836 15.4012 12.1567 8.83125 15.2775 3.42525Z" fill="#9B9B9B"/>
<path fill-rule="evenodd" clip-rule="evenodd" d="M11.8515 26.5748L9.87375 30L4.266 26.763L6.24375 23.3378C6.591 22.737 6.07125 22.0065 5.3895 22.1378L1.60125 22.8683L0.375 16.5113L4.164 15.7808C10.293 14.5988 14.9715 21.1688 11.8515 26.5748Z" fill="#9B9B9B"/>
<path fill-rule="evenodd" clip-rule="evenodd" d="M12.0225 3.42525L10.0455 0L4.43774 3.23775L6.41549 6.66225C6.76199 7.263 6.24299 7.9935 5.56124 7.86225L1.77224 7.131L0.547485 13.4888L4.33574 14.2192C10.4655 15.4012 15.1447 8.83125 12.0232 3.42525H12.0225Z" fill="#9B9B9B"/>
<path fill-rule="evenodd" clip-rule="evenodd" d="M15.1125 26.5748L17.0887 30L22.6965 26.763L20.7187 23.3378C20.3722 22.737 20.8912 22.0065 21.573 22.1378L25.3612 22.8683L26.5875 16.5113L22.7985 15.7808C16.6695 14.5988 11.991 21.1688 15.111 26.5748H15.1125Z" fill="#9B9B9B"/>
<path d="M122.71 22.6147V16.2397C122.71 15.3562 122.914 14.5635 123.32 13.8622C123.741 13.1467 124.337 12.5858 125.109 12.1785C125.881 11.772 126.799 11.5687 127.865 11.5687C128.363 11.5639 128.858 11.6275 129.338 11.7577C129.787 11.8702 130.194 12.0315 130.558 12.2415C130.937 12.438 131.26 12.6765 131.527 12.957H131.569C131.855 12.6725 132.18 12.4314 132.536 12.2415C132.927 12.0264 133.345 11.8637 133.778 11.7577C134.266 11.6284 134.768 11.5649 135.272 11.5687C136.338 11.5687 137.257 11.7713 138.028 12.1785C138.799 12.5858 139.396 13.146 139.816 13.8622C140.238 14.5635 140.448 15.3555 140.448 16.2397V22.6147H137.165V16.3447C137.165 15.9945 137.074 15.6787 136.892 15.3982C136.725 15.1049 136.486 14.8587 136.198 14.6827C135.894 14.4978 135.543 14.4028 135.187 14.409C134.809 14.409 134.465 14.5005 134.157 14.6827C133.869 14.8585 133.63 15.1047 133.462 15.3982C133.292 15.6843 133.205 16.0119 133.21 16.3447V22.6147H129.949V16.3447C129.949 15.9945 129.857 15.6787 129.675 15.3982C129.504 15.1006 129.257 14.8537 128.959 14.6827C128.655 14.4978 128.305 14.4028 127.949 14.409C127.57 14.409 127.227 14.5005 126.919 14.6827C126.63 14.8585 126.391 15.1047 126.224 15.3982C126.054 15.6845 125.967 16.012 125.971 16.3447V22.6147H122.71ZM115.577 22.8675C114.469 22.8675 113.508 22.6575 112.695 22.236C111.895 21.801 111.278 21.219 110.843 20.49C110.408 19.7467 110.191 18.9255 110.191 18.0278V11.8207H113.452V17.9437C113.452 18.3225 113.543 18.6735 113.725 18.996C113.908 19.3042 114.154 19.557 114.462 19.7535C114.784 19.9357 115.15 20.0272 115.556 20.0272C115.949 20.0272 116.299 19.9357 116.608 19.7535C116.931 19.557 117.184 19.3042 117.366 18.996C117.548 18.6735 117.64 18.3225 117.64 17.9437V11.8207H120.901V18.0278C120.901 18.9255 120.69 19.7467 120.269 20.49C119.848 21.219 119.239 21.8017 118.439 22.236C117.653 22.6567 116.699 22.8675 115.577 22.8675ZM99.6855 22.6147V20.0272H104.883C105.023 20.0272 105.149 19.9987 105.262 19.9425C105.373 19.8727 105.465 19.7812 105.535 19.6695C105.603 19.559 105.64 19.4314 105.64 19.3012C105.64 19.1711 105.603 19.0435 105.535 18.933C105.469 18.8248 105.375 18.7373 105.262 18.6802C105.148 18.6098 105.017 18.5734 104.883 18.5752H102.989C102.287 18.5752 101.649 18.4627 101.074 18.2385C100.529 18.0124 100.061 17.6322 99.7275 17.1442C99.405 16.6395 99.2437 15.987 99.2437 15.1875C99.2437 14.5702 99.3907 14.0092 99.6855 13.5045C99.9921 13.0013 100.419 12.5818 100.927 12.2835C101.457 11.9757 102.06 11.8159 102.673 11.8207H107.87V14.43H103.178C102.992 14.4263 102.811 14.4942 102.673 14.6197C102.612 14.6799 102.563 14.7519 102.531 14.8315C102.498 14.9111 102.482 14.9965 102.484 15.0825C102.484 15.279 102.547 15.447 102.673 15.5872C102.811 15.7128 102.992 15.7807 103.178 15.777H105.03C105.815 15.777 106.489 15.8962 107.05 16.134C107.625 16.359 108.067 16.7235 108.376 17.229C108.698 17.7337 108.859 18.3855 108.859 19.185C108.859 19.8165 108.698 20.3917 108.376 20.91C108.07 21.4266 107.634 21.8546 107.113 22.152C106.594 22.461 106.005 22.6147 105.346 22.6147H99.6855ZM92.58 11.5687C93.492 11.5687 94.2982 11.7157 94.9995 12.0105C95.6883 12.2731 96.3075 12.6906 96.8092 13.2308C97.3206 13.76 97.7149 14.3909 97.9665 15.0825C98.2327 15.7837 98.3662 16.5623 98.3662 17.418C98.3662 18.4837 98.142 19.431 97.6927 20.2582C97.2778 21.0511 96.6517 21.7137 95.8837 22.173C95.112 22.6357 94.2142 22.8675 93.1905 22.8675C92.7555 22.8675 92.3415 22.8112 91.9485 22.6995C91.5763 22.5901 91.222 22.4268 90.897 22.215C90.5905 22.0071 90.3264 21.7429 90.1185 21.4365H90.0547V27.1815H86.7937V17.4172C86.7937 16.2247 87.0322 15.1935 87.5092 14.3243C87.9716 13.4686 88.6735 12.7665 89.529 12.3038C90.399 11.8133 91.416 11.568 92.58 11.568V11.5687ZM92.58 14.388C92.0752 14.388 91.6335 14.514 91.2547 14.7667C90.8895 15.0052 90.609 15.342 90.4125 15.777C90.2167 16.197 90.1185 16.6747 90.1185 17.2072C90.1185 17.7405 90.2167 18.2175 90.4125 18.6382C90.609 19.059 90.8895 19.3957 91.2547 19.6485C91.6335 19.887 92.0752 20.0062 92.58 20.0062C93.0847 20.0062 93.5197 19.8862 93.8842 19.6485C94.251 19.394 94.5421 19.0449 94.7265 18.6382C94.9365 18.2175 95.0415 17.7405 95.0415 17.2072C95.0415 16.6747 94.9365 16.1977 94.7265 15.777C94.53 15.342 94.2495 15.0045 93.8842 14.7667C93.5197 14.514 93.0847 14.388 92.58 14.388ZM81.8377 22.6147V11.8207H85.1205V22.6147H81.8377ZM83.4787 10.6005C82.9597 10.6005 82.5112 10.4115 82.1325 10.0327C81.7537 9.654 81.564 9.20475 81.564 8.68575C81.564 8.16675 81.7537 7.71825 82.1325 7.3395C82.5112 6.9465 82.9597 6.75 83.4787 6.75C83.9977 6.75 84.447 6.9465 84.8257 7.3395C85.2045 7.71825 85.3935 8.16675 85.3935 8.68575C85.3935 9.20475 85.2045 9.65325 84.8257 10.0327C84.447 10.4115 83.9977 10.6005 83.4787 10.6005ZM74.7037 22.8675C73.596 22.8675 72.6 22.6222 71.7157 22.131C70.8483 21.6555 70.1224 20.9586 69.612 20.1112C69.1072 19.2555 68.8545 18.2947 68.8545 17.2282C68.8545 16.1482 69.1072 15.1875 69.612 14.346C70.1224 13.4987 70.8483 12.8017 71.7157 12.3262C72.6 11.8207 73.596 11.5687 74.7037 11.5687C75.8122 11.5687 76.8007 11.8207 77.6707 12.3262C78.5351 12.7984 79.255 13.4965 79.7535 14.346C80.2725 15.1875 80.532 16.1482 80.532 17.2282C80.532 18.2947 80.2725 19.2555 79.7535 20.1112C79.255 20.9607 78.5351 21.6588 77.6707 22.131C76.7872 22.6222 75.798 22.8675 74.7037 22.8675ZM74.7037 20.0272C75.2227 20.0272 75.672 19.9005 76.0507 19.6485C76.4296 19.396 76.7345 19.0474 76.9342 18.6382C77.145 18.2175 77.25 17.7405 77.25 17.2072C77.25 16.6882 77.145 16.2187 76.9342 15.7972C76.7344 15.3884 76.4295 15.04 76.0507 14.7877C75.672 14.535 75.2227 14.409 74.7037 14.409C74.1847 14.409 73.7287 14.535 73.3365 14.7877C72.9575 15.0402 72.6523 15.3889 72.4522 15.798C72.2379 16.2367 72.13 16.7198 72.1372 17.208C72.1372 17.7405 72.2422 18.2175 72.4522 18.6382C72.6524 19.0473 72.9575 19.396 73.3365 19.6485C73.7287 19.9005 74.1847 20.0272 74.7037 20.0272ZM58.2555 26.8867V24.0877H63.6412C63.852 24.0877 64.0275 24.018 64.1677 23.8777C64.2361 23.8173 64.2904 23.7426 64.3267 23.6589C64.3629 23.5751 64.3804 23.4845 64.3777 23.3932V21.0157H64.3147C64.0483 21.3256 63.7445 21.6012 63.4102 21.8362C63.1012 22.0612 62.7502 22.2292 62.358 22.3417C61.9405 22.4591 61.5083 22.5156 61.0747 22.5097C60.1207 22.5097 59.265 22.2847 58.5075 21.8362C57.7642 21.3735 57.1747 20.7352 56.7397 19.9215C56.3197 19.1085 56.109 18.1822 56.109 17.1442C56.109 16.1205 56.3265 15.1875 56.7615 14.346C57.21 13.5045 57.8625 12.831 58.7182 12.3262C59.5732 11.8207 60.6187 11.5687 61.8532 11.5687C63.0315 11.5687 64.0485 11.814 64.9042 12.3052C65.7636 12.7717 66.4662 13.4813 66.924 14.3453C67.401 15.2153 67.6395 16.2397 67.6395 17.418V23.73C67.6395 24.6975 67.3522 25.4625 66.777 26.0235C66.216 26.5987 65.4375 26.886 64.4415 26.886L58.2555 26.8867ZM61.8742 19.7745C62.379 19.7745 62.814 19.662 63.1792 19.4377C63.5396 19.2037 63.8301 18.8767 64.02 18.4913C64.2195 18.0855 64.3205 17.6384 64.3147 17.1862C64.3147 16.6815 64.2172 16.2187 64.0207 15.798C63.8242 15.3772 63.5437 15.0472 63.1785 14.8088C62.814 14.556 62.379 14.43 61.8735 14.43C61.383 14.43 60.948 14.5492 60.5692 14.7877C60.2047 15.0262 59.9242 15.3487 59.7277 15.7552C59.532 16.1625 59.4337 16.6177 59.4337 17.1232C59.4337 17.6145 59.5312 18.063 59.7277 18.4703C59.9242 18.8625 60.2047 19.1782 60.57 19.4167C60.948 19.6552 61.383 19.7745 61.8742 19.7745ZM49.4797 22.8675C48.372 22.8675 47.376 22.6222 46.4925 22.131C45.6247 21.6557 44.8986 20.9587 44.388 20.1112C43.8832 19.2555 43.6305 18.2947 43.6305 17.2282C43.6305 16.1482 43.8832 15.1875 44.388 14.346C44.8986 13.4985 45.6247 12.8016 46.4925 12.3262C47.376 11.8207 48.372 11.5687 49.4797 11.5687C50.5882 11.5687 51.5767 11.8207 52.4467 12.3262C53.3111 12.7985 54.0309 13.4966 54.5295 14.346C55.0485 15.1875 55.308 16.1482 55.308 17.2282C55.308 18.2947 55.0485 19.2555 54.5295 20.1112C54.0309 20.9607 53.3111 21.6587 52.4467 22.131C51.5632 22.6222 50.574 22.8675 49.4797 22.8675ZM49.4797 20.0272C49.9987 20.0272 50.4472 19.9005 50.8267 19.6485C51.2054 19.3959 51.5103 19.0472 51.7102 18.6382C51.9202 18.2175 52.0252 17.7405 52.0252 17.2072C52.0252 16.6882 51.9202 16.2187 51.7102 15.7972C51.5102 15.3885 51.2054 15.0402 50.8267 14.7877C50.448 14.535 49.9987 14.409 49.4797 14.409C48.9607 14.409 48.5047 14.535 48.1125 14.7877C47.7335 15.0402 47.4283 15.3889 47.2282 15.798C47.014 16.2367 46.9061 16.7198 46.9132 17.208C46.9132 17.7405 47.0182 18.2175 47.2282 18.6382C47.4284 19.0473 47.7335 19.396 48.1125 19.6485C48.5047 19.9005 48.9607 20.0272 49.4797 20.0272ZM39.0352 22.6147C38.1232 22.6147 37.3237 22.4122 36.6367 22.005C35.9686 21.6176 35.4164 21.0582 35.0377 20.385C34.659 19.7115 34.4692 18.9675 34.4692 18.1545V7.88625H38.004V18.4065C38.004 18.744 38.124 19.038 38.3617 19.2907C38.6002 19.5427 38.8942 19.6695 39.2452 19.6695H43.1377V22.6147H39.0352Z" fill="#9B9B9B"/>
</g>
<defs>
<clipPath id="clip0_402_31088">
<rect width="140.25" height="30" fill="white" transform="translate(0.375)"/>
</clipPath>
</defs>
</svg>
